#!OML:ASF H:\BabyWalks\Project 1\Capture day 1\Session 1\baby.ASF
:FULLY-SPECIFIED
:DEGREES
1121
root 26.3577 17.7685 -2.18962 -377.218 79.5918 -390.228
lowerback 27.414 -1.45286 -5.76034
upperback 5.41143 -3.0833 0.0115197
thorax -8.77479 -1.15051 4.34494
lowerneck -2.93749 4.32447 9.20179
upperneck -17.7507 5.49007 -7.33576
head -4.35582 2.75641 -3.96514
rclavicle -1.66979e-014 7.95139e-015
rhumerus -42.365 13.5247 -82.2266
rradius 47.6568
rwrist 5.17808
rhand -16.1913 350.971
rfingers 7.12502
rthumb 10.0156 -38.7706
lclavicle -1.66979e-014 7.95139e-015
lhumerus -25.8449 -35.1121 73.2144
lradius 71.4274
lwrist 3.20672
lhand -7.41012 -0.00744558
lfingers 7.12502
lthumb 18.4763 29.1351
rfemur -31.6095 -0.792849 20.7215
rtibia 36.321
rfoot -19.7642 2.1399
rtoes -22.802
lfemur -16.8795 9.87874 -17.274
ltibia 30.6825
lfoot -25.6176 11.7826
ltoes -1.50794
1122
root 26.4595 17.7622 -2.18109 -375.543 79.8131 -388.295
lowerback 27.2653 -1.63432 -5.78594
upperback 5.35145 -3.31086 0.128376
thorax -8.73318 -1.25936 4.5601
lowerneck -2.76269 4.4914 9.33814
upperneck -17.7025 5.6399 -7.96893
head -4.32498 2.85576 -4.18893
rclavicle 5.56597e-015 -2.06736e-014
rhumerus -42.8688 13.2264 -81.6944
rradius 47.8236
rwrist 5.12231
rhand -16.2225 350.936
rfingers 7.12502
rthumb 9.98549 -38.8067
lclavicle 5.56597e-015 -2.06736e-014
lhumerus -26.0379 -35.1837 73.4998
lradius 71.4752
lwrist 3.31208
lhand -7.48945 0.502142
lfingers 7.12502
lthumb 18.4 29.6519
rfemur -31.6128 -0.283715 20.1569
rtibia 35.5438
rfoot -19.9191 1.45915
rtoes -22.4981
lfemur -15.8408 9.63127 -17.6099
ltibia 29.9277
lfoot -25.6595 11.7334
ltoes -1.47493
1123
root 26.5622 17.7533 -2.17026 -373.77 80.0408 -386.238
lowerback 27.1221 -1.79729 -5.82061
upperback 5.30172 -3.51629 0.245112
thorax -8.68311 -1.3579 4.77188
lowerneck -2.5926 4.63762 9.44965
upperneck -17.6528 5.76727 -8.56841
head -4.29557 2.94432 -4.39794
rclavicle -1.66979e-014 1.90833e-014
rhumerus -43.3841 12.9416 -81.1681
rradius 48.0167
rwrist 5.01053
rhand -16.2625 350.909
rfingers 7.12502
rthumb 9.94686 -38.8361
lclavicle -1.66979e-014 1.90833e-014
lhumerus -26.2155 -35.2266 73.7936
lradius 71.5074
lwrist 3.41095
lhand -7.5052 1.02921
lfingers 7.12502
lthumb 18.3849 30.1804
rfemur -31.5745 0.259414 19.5589
rtibia 34.9802
rfoot -20.0632 0.82031
rtoes -22.1545
lfemur -14.7881 9.41821 -17.9492
ltibia 29.1999
lfoot -25.7102 11.6347
ltoes -1.47572
1124
root 26.6657 17.7415 -2.15718 -371.917 80.273 -384.077
lowerback 26.9847 -1.94456 -5.85803
upperback 5.26156 -3.7016 0.360582
thorax -8.626 -1.4472 4.97625
lowerneck -2.42554 4.76769 9.54298
upperneck -17.5955 5.87821 -9.13558
head -4.26574 3.02462 -4.5936
rclavicle -1.59028e-015 4.45278e-014
rhumerus -43.9083 12.6745 -80.6557
rradius 48.2263
rwrist 4.84958
rhand -16.3027 350.892
rfingers 7.12502
rthumb 9.90814 -38.8546
lclavicle -1.59028e-015 4.45278e-014
lhumerus -26.3798 -35.2432 74.0951
lradius 71.5135
lwrist 3.48899
lhand -7.46091 1.56347
lfingers 7.12502
lthumb 18.4275 30.7106
rfemur -31.4893 0.799706 18.9546
rtibia 34.622
rfoot -20.2065 0.271869
rtoes -21.7933
lfemur -13.7305 9.24318 -18.2853
ltibia 28.5173
lfoot -25.7775 11.4849
ltoes -1.51696
1125
root 26.7697 17.7265 -2.14186 -369.992 80.5046 -381.825
lowerback 26.85 -2.07539 -5.89261
upperback 5.23241 -3.86415 0.473418
thorax -8.55973 -1.52631 5.16753
lowerneck -2.26163 4.88229 9.62313
upperneck -17.5352 5.97328 -9.67364
head -4.23684 3.09682 -4.77791
rclavicle -7.07673e-014 1.59028e-014
rhumerus -44.4301 12.4239 -80.1633
rradius 48.433
rwrist 4.64691
rhand -16.3649 350.906
rfingers 7.12502
rthumb 9.84812 -38.8436
lclavicle -7.07673e-014 1.59028e-014
lhumerus -26.5227 -35.2309 74.3979
lradius 71.4815
lwrist 3.52945
lhand -7.34942 2.08108
lfingers 7.12502
lthumb 18.5347 31.2181
rfemur -31.3545 1.31386 18.3662
rtibia 34.4486
rfoot -20.3427 -0.135078
rtoes -21.4217
lfemur -12.6821 9.1076 -18.6124
ltibia 27.9009
lfoot -25.8628 11.2915
ltoes -1.61927
1126
root 26.8744 17.7086 -2.12431 -368.036 80.733 -379.526
lowerback 26.7124 -2.1932 -5.91719
upperback 5.21579 -4.00599 0.583739
thorax -8.48035 -1.59661 5.34212
lowerneck -2.10429 4.98486 9.69707
upperneck -17.4693 6.05658 -10.1854
head -4.20704 3.16252 -4.95274
rclavicle -1.43125e-014 3.18055e-015
rhumerus -44.9416 12.1827 -79.6998
rradius 48.624
rwrist 4.42945
rhand -16.4589 350.96
rfingers 7.12502
rthumb 9.75739 -38.7939
lclavicle -1.43125e-014 3.18055e-015
lhumerus -26.655 -35.1724 74.7028
lradius 71.4095
lwrist 3.52132
lhand -7.18827 2.55923
lfingers 7.12502
lthumb 18.6897 31.6814
rfemur -31.1648 1.78618 17.8168
rtibia 34.4339
rfoot -20.4717 -0.373794
rtoes -21.0714
lfemur -11.6581 9.01485 -18.9192
ltibia 27.3719
lfoot -25.9736 11.0497
ltoes -1.79006
